<?xml version="1.0" standalone="no"?>
<!DOCTYPE svg PUBLIC "-//W3C//DTD SVG 20010904//EN"
 "http://www.w3.org/TR/2001/REC-SVG-20010904/DTD/svg10.dtd">
<svg version="1.0" xmlns="http://www.w3.org/2000/svg"
 width="42.000000pt" height="26.000000pt" viewBox="0 0 42.000000 26.000000"
 preserveAspectRatio="xMidYMid meet">

<g transform="translate(0.000000,26.000000) scale(0.100000,-0.100000)"
fill="#000000" stroke="none">
<path d="M112 233 c-23 -9 -43 -60 -33 -85 12 -31 109 -138 126 -138 14 0 118
115 128 143 10 27 -19 76 -50 83 -17 5 -37 1 -54 -9 -24 -13 -30 -13 -40 -1
-11 14 -51 18 -77 7z m84 -35 c22 -18 27 -19 21 -6 -5 14 2 19 30 24 31 6 39
3 55 -16 10 -12 18 -29 18 -37 0 -8 -26 -41 -57 -74 l-57 -60 -53 53 c-62 61
-70 80 -49 113 21 31 54 32 92 3z"/>
</g>
</svg>
