<?xml version="1.0" standalone="no"?>
<!DOCTYPE svg PUBLIC "-//W3C//DTD SVG 20010904//EN"
 "http://www.w3.org/TR/2001/REC-SVG-20010904/DTD/svg10.dtd">
<svg version="1.0" xmlns="http://www.w3.org/2000/svg"
 width="25.000000pt" height="25.000000pt" viewBox="0 0 25.000000 25.000000"
 preserveAspectRatio="xMidYMid meet">

<g transform="translate(0.000000,25.000000) scale(0.100000,-0.100000)"
fill="#000000" stroke="none">
<path d="M132 238 c-16 -16 -15 -39 4 -66 11 -16 25 -22 53 -22 42 0 52 -6 44
-26 -7 -18 -50 -18 -82 0 -25 14 -61 11 -61 -5 0 -5 -10 -9 -23 -9 -33 0 -67
-28 -67 -54 0 -35 30 -56 83 -56 38 0 49 4 65 28 10 15 21 33 24 41 2 7 19 19
38 25 28 9 35 16 35 36 0 21 -5 26 -33 28 -32 3 -32 4 -26 39 9 46 -24 71 -54
41z m-49 -179 c9 -17 17 -35 17 -40 0 -16 -47 -10 -70 9 -19 16 -21 22 -11 40
16 31 43 27 64 -9z"/>
</g>
</svg>
