<?xml version="1.0" standalone="no"?>
<!DOCTYPE svg PUBLIC "-//W3C//DTD SVG 20010904//EN"
 "http://www.w3.org/TR/2001/REC-SVG-20010904/DTD/svg10.dtd">
<svg version="1.0" xmlns="http://www.w3.org/2000/svg"
 width="23.000000pt" height="22.000000pt" viewBox="0 0 23.000000 22.000000"
 preserveAspectRatio="xMidYMid meet">

<g transform="translate(0.000000,22.000000) scale(0.100000,-0.100000)"
fill="#000000" stroke="none">
<path d="M72 195 c-47 -20 -68 -72 -48 -119 18 -44 47 -59 115 -60 49 -1 56 2
58 19 2 11 6 35 9 52 12 64 -13 102 -76 116 -14 3 -40 -1 -58 -8z m104 -31
c22 -21 25 -31 20 -62 -4 -20 -7 -45 -8 -54 -2 -15 -12 -18 -56 -18 -64 0
-102 30 -102 80 0 72 94 107 146 54z"/>
<path d="M108 100 c-3 -19 0 -30 7 -30 7 0 10 11 7 30 -2 17 -5 30 -7 30 -2 0
-5 -14 -7 -30z"/>
</g>
</svg>
